<svg width="756" height="293" version="1.1" xmlns="http://www.w3.org/2000/svg" desc="Created with imagetracer.js version 1.2.6" ><path fill="rgb(155,155,155)" stroke="rgb(155,155,155)" stroke-width="1" opacity="0.19215686274509805" d="M 398.5 78 L 454.5 78 L 455.5 79 L 496.5 79 Q 498 81.5 503.5 80 Q 531.8 86.2 548 104.5 Q 557.6 114.9 563 129.5 L 566 140.5 L 567 160.5 L 562 180.5 Q 556 196 544.5 206 Q 542.3 205.3 543 207.5 Q 534.8 215.8 523.5 221 L 513.5 225 L 499.5 228 L 498 226.5 Q 499.7 220.3 497 218.5 L 496 187.5 L 509.5 182 L 519 173.5 Q 526.3 165.8 526 150.5 Q 523.8 137.2 515.5 130 L 501.5 122 L 491.5 120 L 434.5 120 L 432.5 119 L 429.5 120 L 427.5 119 L 425.5 119 L 396.5 119 L 391.5 120 Q 377.7 123.2 370 132.5 L 364 143.5 L 362 159.5 L 358 167 L 347.5 173 L 337.5 173 Q 328.4 170.5 324 163.5 L 322 158.5 L 321 148.5 L 324 131.5 L 332 114.5 L 348.5 96 Q 358.3 87.8 371.5 83 L 381.5 80 L 397.5 79 L 398.5 78 Z M 390 80 L 368 86 L 350 97 Q 329 113 323 144 L 323 158 L 326 164 Q 330 170 340 172 L 345 172 L 353 169 L 360 161 L 362 146 L 369 132 Q 378 122 393 118 L 496 119 Q 507 121 514 127 Q 524 134 527 150 Q 528 166 520 175 L 511 183 L 497 189 L 497 206 L 498 207 L 499 226 L 516 223 L 538 211 Q 559 195 565 165 L 565 144 L 561 129 Q 555 113 544 102 Q 541 103 542 100 L 520 86 L 496 80 L 390 80 Z " /><path fill="rgb(155,155,155)" stroke="rgb(155,155,155)" stroke-width="1" opacity="0.19215686274509805" d="M 241.5 79 Q 246.9 77.1 246 80.5 L 247 81.5 L 247 90.5 L 246 92.5 L 247 93.5 L 247 119.5 L 246 122 L 239.5 124 L 231 131.5 L 225 142.5 L 224 155.5 Q 226.9 171.6 238.5 179 L 249.5 184 L 263.5 185 L 264.5 186 L 356.5 186 Q 370.4 183.4 378 174.5 L 385 163.5 L 388 145.5 L 395.5 136 Q 401 131 413.5 133 Q 420.9 135.6 425 141.5 L 428 147.5 L 428 162.5 L 424 178.5 Q 418.3 192 410 202 L 407 203.5 L 405.5 206 Q 395.7 215.2 382.5 221 L 360.5 227 L 256.5 227 L 255.5 226 L 242.5 225 L 220.5 216 Q 207.2 208.4 198 196.5 Q 190.3 186.8 186 173.5 L 183 159.5 L 183 142.5 L 188 123.5 L 198 106 Q 200.7 107.1 200 104.5 Q 215.1 86.1 241.5 79 Z M 244 80 Q 224 85 211 96 Q 199 105 192 119 L 187 131 L 184 145 L 184 159 L 187 173 Q 191 186 199 196 Q 211 211 230 219 L 251 225 L 264 225 L 265 226 L 358 226 Q 359 224 365 225 Q 390 220 405 204 Q 407 205 406 202 L 408 202 L 422 180 L 427 160 Q 429 148 424 143 Q 420 137 413 134 Q 401 132 397 137 L 389 147 L 387 163 L 381 174 Q 372 185 355 188 L 257 187 L 243 183 L 237 179 Q 227 172 223 159 Q 221 139 230 131 Q 236 123 246 120 L 246 94 L 245 93 L 245 81 L 244 80 Z " /><path fill="rgb(0,0,0)" stroke="rgb(0,0,0)" stroke-width="1" opacity="0" d="M 0 0 L 756 0 L 756 293 L 0 293 L 0 0 Z M 399 78 L 398 79 L 382 80 L 372 83 Q 358 88 349 96 L 332 115 L 324 132 L 321 149 L 322 159 L 324 164 Q 328 171 338 173 L 348 173 L 358 167 L 362 160 L 364 144 L 370 133 Q 378 123 392 120 L 397 119 L 426 119 L 428 119 L 430 120 L 433 119 L 435 120 L 492 120 L 502 122 L 516 130 Q 524 137 526 151 Q 526 166 519 174 L 510 182 L 496 188 L 497 219 Q 500 220 498 227 L 500 228 L 514 225 L 524 221 Q 535 216 543 208 Q 542 205 545 206 Q 556 196 562 181 L 567 161 L 566 141 L 563 130 Q 558 115 548 105 Q 532 86 504 80 Q 498 82 497 79 L 456 79 L 455 78 L 399 78 Z M 242 79 Q 215 86 200 105 Q 201 107 198 106 L 188 124 L 183 143 L 183 160 L 186 174 Q 190 187 198 197 Q 207 208 221 216 L 243 225 L 256 226 L 257 227 L 361 227 L 383 221 Q 396 215 406 206 L 407 204 L 410 202 Q 418 192 424 179 L 428 163 L 428 148 L 425 142 Q 421 136 414 133 Q 401 131 396 136 L 388 146 L 385 164 L 378 175 Q 370 183 357 186 L 265 186 L 264 185 L 250 184 L 239 179 Q 227 172 224 156 L 225 143 L 231 132 L 240 124 L 246 122 L 247 120 L 247 94 L 246 93 L 247 91 L 247 82 L 246 81 Q 247 77 242 79 Z " /><path fill="rgb(3,3,3)" stroke="rgb(3,3,3)" stroke-width="1" opacity="0.984313725490196" d="M 243.5 80 L 245 80.5 L 245 92.5 L 246 93.5 L 246 120 Q 236.2 122.6 230 130.5 Q 221.3 139.3 223 158.5 Q 226.5 172 236.5 179 L 242.5 183 L 256.5 187 L 354.5 188 Q 372.1 185.1 381 173.5 L 387 162.5 L 389 146.5 L 396.5 137 Q 401.3 132.3 412.5 134 Q 419.9 136.6 424 142.5 Q 428.5 148 427 159.5 L 422 179.5 L 408 202 L 406 202 Q 407.1 204.7 404.5 204 Q 390 220 364.5 225 Q 359 223.5 357.5 226 L 264.5 226 L 263.5 225 L 250.5 225 L 229.5 219 Q 210.8 210.8 199 195.5 Q 191.3 185.8 187 172.5 L 184 158.5 L 184 144.5 L 187 130.5 L 192 118.5 Q 199.2 105.2 210.5 96 Q 223.6 84.6 243.5 80 Z " /><path fill="rgb(3,3,3)" stroke="rgb(3,3,3)" stroke-width="1" opacity="0.984313725490196" d="M 389.5 80 L 495.5 80 L 519.5 86 L 542 100 Q 540.9 102.7 543.5 102 Q 555 112.5 561 128.5 L 565 143.5 L 565 164.5 Q 558.8 195.3 537.5 211 L 515.5 223 L 499 226 L 498 206.5 L 497 205.5 L 497 188.5 L 510.5 183 L 520 174.5 Q 527.7 166.2 527 149.5 Q 524.3 134.2 513.5 127 Q 506.5 121 495.5 119 L 392.5 118 Q 377.6 121.6 369 131.5 L 362 145.5 L 360 160.5 L 352.5 169 L 344.5 172 L 339.5 172 Q 330.3 170.3 326 163.5 L 323 157.5 L 323 143.5 Q 328.8 112.8 349.5 97 L 367.5 86 L 389.5 80 Z " /></svg>